<svg  viewBox="0 0 1024 279" fill="none" xmlns="http://www.w3.org/2000/svg">
<path d="M175.6 155.32C176.667 155.96 177.52 155.96 178.16 155.32C178.587 154.893 178.373 154.68 177.52 154.68C177.307 154.68 176.987 154.68 176.56 154.68C175.28 154.68 174.853 154.787 175.28 155C175.28 155 175.387 155.107 175.6 155.32ZM234.8 143.16C233.947 142.947 233.093 142.733 232.24 142.52C230.533 142.52 229.787 142.733 230 143.16C230 143.16 230.213 143.16 230.64 143.16C232.133 143.587 233.52 143.587 234.8 143.16ZM224.56 142.2C223.493 142.2 223.173 142.52 223.6 143.16C224.24 143.8 224.88 143.8 225.52 143.16C225.52 142.733 225.2 142.413 224.56 142.2ZM215.28 143.8C218.48 143.373 220.08 143.053 220.08 142.84C220.08 142.627 217.093 142.413 211.12 142.2C203.013 142.2 198.96 142.733 198.96 143.8C198.96 144.44 200.347 144.76 203.12 144.76C206.747 144.76 210.8 144.44 215.28 143.8ZM226.16 104.44C225.093 103.8 224.24 103.8 223.6 104.44C223.173 104.867 223.387 105.08 224.24 105.08H225.2C226.48 105.08 227.013 104.973 226.8 104.76L226.16 104.44ZM222.32 119.8C221.68 120.867 221.36 121.507 221.36 121.72C221.147 122.573 221.147 123 221.36 123C222.853 123 245.787 111.8 290.16 89.4C335.173 66.7867 358 55.48 358.64 55.48C358.853 55.48 358.96 56.12 358.96 57.4C358.96 58.68 356.827 60.92 352.56 64.12C348.507 67.32 345.2 70.9467 342.64 75C340.933 77.56 338.907 79.6933 336.56 81.4C334.213 83.1067 329.413 85.7733 322.16 89.4C311.28 94.7333 304.347 98.68 301.36 101.24C299.44 103.16 288.987 109.347 270 119.8C251.653 129.4 242.48 134.413 242.48 134.84C242.48 135.053 247.92 138.467 258.8 145.08C269.68 151.693 275.12 155.533 275.12 156.6C275.12 157.453 274.053 158.2 271.92 158.84C270.64 159.267 270 159.693 270 160.12C270 160.333 270.213 160.867 270.64 161.72C271.92 163.213 273.84 164.493 276.4 165.56C280.027 167.053 281.84 170.68 281.84 176.44C281.84 176.653 281.733 177.187 281.52 178.04C281.52 178.893 281.52 179.533 281.52 179.96C281.307 181.88 281.307 183.16 281.52 183.8C281.733 184.44 282.373 184.76 283.44 184.76C284.507 184.76 300.4 192.867 331.12 209.08C362.053 225.507 378.693 233.72 381.04 233.72H381.36V233.4H382C384.347 233.4 387.333 234.253 390.96 235.96C393.947 237.24 395.973 238.307 397.04 239.16C398.32 240.227 399.28 241.827 399.92 243.96C400.773 247.16 401.2 249.613 401.2 251.32C401.2 252.6 400.88 253.24 400.24 253.24H399.92C396.507 251.533 378.48 241.827 345.84 224.12C313.2 206.413 281.84 189.453 251.76 173.24C221.893 157.027 206.853 149.027 206.64 149.24C206.213 149.667 201.733 157.133 193.2 171.64C184.453 186.36 179.653 193.72 178.8 193.72C178.587 193.72 176.667 192.547 173.04 190.2C169.627 187.853 167.92 186.573 167.92 186.36C167.92 186.147 168.027 185.613 168.24 184.76C168.667 184.12 169.093 183.053 169.52 181.56C170.16 180.067 170.693 178.68 171.12 177.4C173.04 172.92 174 170.04 174 168.76C174 168.547 173.893 167.907 173.68 166.84C170.267 166.84 168.56 166.2 168.56 164.92C168.56 164.28 169.307 162.253 170.8 158.84L170.16 157.56L179.12 140.92C179.76 139.64 180.187 138.68 180.4 138.04C180.613 137.4 180.613 137.08 180.4 137.08C178.907 137.08 155.973 148.173 111.6 170.36C66.5867 192.973 43.76 204.28 43.12 204.28C42.9067 204.28 42.8 203.64 42.8 202.36C42.8 201.08 44.8267 198.84 48.88 195.64C53.1467 192.44 56.56 188.813 59.12 184.76C60.8267 182.2 62.8533 180.067 65.2 178.36C67.5467 176.653 72.3467 173.987 79.6 170.36C90.48 165.027 97.4133 161.08 100.4 158.52C102.32 156.6 112.773 150.413 131.76 139.96C150.32 130.36 159.6 125.453 159.6 125.24C159.6 124.813 154.053 121.293 142.96 114.68C132.08 108.28 126.64 104.547 126.64 103.48C126.64 102.413 127.707 101.56 129.84 100.92C131.12 100.707 131.76 100.28 131.76 99.64C131.76 99.4267 131.547 99 131.12 98.36C129.84 96.8667 127.92 95.5867 125.36 94.52C121.733 92.8133 119.92 89.08 119.92 83.32V81.72C120.133 80.8667 120.24 80.2267 120.24 79.8C120.453 77.88 120.347 76.6 119.92 75.96C119.92 75.32 119.387 75 118.32 75C117.253 75 101.36 66.8933 70.64 50.68C39.7067 34.2533 23.0667 26.04 20.72 26.04L20.4 26.36H19.76C17.4133 26.36 14.4267 25.5067 10.8 23.8C7.81332 22.52 5.67999 21.3467 4.39999 20.28C3.33332 19.4267 2.47999 17.9333 1.83999 15.8C0.986654 12.6 0.559988 10.2533 0.559988 8.75999C0.559988 7.26666 0.879987 6.52 1.51999 6.52H1.83999C5.46665 8.44 23.4933 18.2533 55.92 35.96C87.7067 53.0267 118.96 69.88 149.68 86.52C179.76 102.733 195.013 110.733 195.44 110.52C195.653 110.307 200.133 102.84 208.88 88.12C217.413 73.4 222.107 66.04 222.96 66.04C223.173 66.04 224.987 67.2133 228.4 69.56C232.027 71.9067 233.84 73.2933 233.84 73.72C233.84 73.72 233.733 74.1467 233.52 75C233.093 75.64 232.56 76.7067 231.92 78.2C231.493 79.6933 231.067 81.08 230.64 82.36C228.72 86.84 227.76 89.72 227.76 91C227.76 91.4267 227.867 92.0667 228.08 92.92C231.707 92.92 233.52 93.56 233.52 94.84C233.52 95.6933 232.773 97.8267 231.28 101.24L231.6 102.2L222.32 119.8ZM491.17 115.64C509.517 85.9867 519.543 71.16 521.25 71.16C522.957 71.16 523.81 71.48 523.81 72.12C523.81 72.5467 522.317 75.5333 519.33 81.08C516.557 85.9867 515.17 91.7467 515.17 98.36C515.17 102.84 515.81 107.427 517.09 112.12C517.09 112.333 517.09 112.653 517.09 113.08C517.303 113.293 517.41 113.507 517.41 113.72C517.41 117.347 509.303 133.667 493.09 162.68C473.463 198.093 463.65 215.907 463.65 216.12C461.09 221.667 459.277 224.227 458.21 223.8C443.703 216.973 436.45 213.027 436.45 211.96L438.05 207.48C438.903 204.28 439.757 201.187 440.61 198.2C441.677 195.427 442.103 194.04 441.89 194.04C441.25 194.04 433.783 199.053 419.49 209.08L397.73 224.44L387.49 217.08C385.997 216.013 384.29 214.84 382.37 213.56C380.45 212.28 378.957 211.32 377.89 210.68L376.61 209.72C376.61 208.867 380.13 199.8 387.17 182.52C392.717 169.933 396.343 162.253 398.05 159.48C399.97 156.707 403.277 154.04 407.97 151.48C414.37 148.28 418.743 146.68 421.09 146.68C423.65 146.68 424.93 148.707 424.93 152.76C424.93 158.093 423.01 164.92 419.17 173.24C415.543 181.773 413.73 186.573 413.73 187.64C413.73 189.133 422.157 184.867 439.01 174.84L463.65 159.8L491.17 115.64ZM568.352 197.56C569.632 197.987 570.592 197.773 571.232 196.92C571.446 196.28 570.912 195.853 569.632 195.64C567.926 195.64 566.859 195.853 566.432 196.28C566.432 196.493 566.752 196.707 567.392 196.92L568.352 197.56ZM585.312 187C585.099 186.787 584.566 186.573 583.712 186.36C582.006 186.573 581.366 186.787 581.792 187C582.859 187.213 584.032 187.213 585.312 187ZM623.392 117.24C624.459 117.027 624.352 116.813 623.072 116.6C622.432 116.387 621.579 116.387 620.512 116.6L616.992 117.24C617.206 117.24 617.526 117.24 617.952 117.24C619.872 117.667 621.686 117.667 623.392 117.24ZM663.392 128.44C663.392 127.587 662.859 127.16 661.792 127.16C660.299 127.16 659.766 127.907 660.192 129.4C660.619 130.68 661.259 131.107 662.112 130.68C663.179 130.04 663.606 129.293 663.392 128.44ZM637.472 116.28C636.406 116.28 635.659 117.453 635.232 119.8C635.019 121.507 635.232 122.36 635.872 122.36C636.086 122.36 636.512 122.04 637.152 121.4C637.792 120.547 638.112 119.693 638.112 118.84C638.539 117.133 638.326 116.28 637.472 116.28ZM644.832 154.36C645.686 154.36 646.432 152.76 647.072 149.56C647.712 146.36 647.499 144.76 646.432 144.76C646.006 144.76 645.472 145.08 644.832 145.72C643.126 147 642.592 149.133 643.232 152.12C643.659 153.613 644.192 154.36 644.832 154.36ZM657.632 123.96C656.779 123.533 655.926 123.32 655.072 123.32C654.219 123.32 653.686 123.533 653.472 123.96L654.432 124.6C654.646 125.027 655.179 125.453 656.032 125.88C656.672 126.307 657.206 126.52 657.632 126.52C658.272 126.52 658.699 126.093 658.912 125.24C658.912 124.813 658.486 124.387 657.632 123.96ZM621.792 103.16C636.512 91.64 644.619 85.0267 646.112 83.32C648.032 81.4 651.232 80.3333 655.712 80.12H656.352L659.872 79.8L658.592 79.48C658.379 79.48 657.952 79.48 657.312 79.48C656.886 79.2667 656.459 79.16 656.032 79.16C651.552 79.16 643.766 79.6933 632.672 80.76C617.312 82.04 605.686 82.8933 597.792 83.32L585.312 83.64C587.659 76.6 589.472 70.7333 590.752 66.04L571.872 65.08C559.712 64.44 552.352 63.16 549.792 61.24C547.659 59.5333 546.912 58.2533 547.552 57.4C547.979 56.5467 549.259 56.12 551.392 56.12C554.379 56.12 559.606 56.8667 567.072 58.36C572.192 59.2133 601.526 59.64 655.072 59.64C690.059 59.8533 712.139 60.0667 721.313 60.28C730.699 60.4933 735.179 61.0267 734.753 61.88C734.113 63.3733 730.059 64.12 722.592 64.12C715.339 64.12 708.086 65.08 700.833 67L688.672 69.88L643.552 106.04C642.912 106.467 642.379 106.893 641.952 107.32L642.912 107.96L645.472 108.28C648.246 108.92 651.552 109.667 655.392 110.52C664.779 112.227 674.592 114.147 684.833 116.28C694.006 118.413 699.552 119.8 701.472 120.44C703.819 121.293 705.099 122.573 705.313 124.28C705.739 126.413 705.419 128.013 704.352 129.08C702.859 130.36 696.032 134.2 683.872 140.6C672.139 147.213 665.419 150.84 663.712 151.48C661.792 151.907 659.979 152.867 658.272 154.36C656.352 155.853 650.592 159.16 640.992 164.28C639.499 164.92 636.086 166.627 630.752 169.4L614.432 178.36C608.246 181.773 603.339 184.547 599.712 186.68C587.126 193.72 578.806 198.2 574.752 200.12C570.699 201.827 565.792 203.213 560.032 204.28C552.352 205.773 545.526 208.227 539.552 211.64C533.579 215.267 520.459 224.333 500.192 238.84C479.926 253.773 469.152 262.413 467.872 264.76C466.592 267.107 462.219 269.987 454.752 273.4L443.872 278.52L444.512 274.68C444.939 272.547 447.179 269.24 451.232 264.76C455.286 260.493 458.272 258.36 460.192 258.36C461.899 258.36 473.419 250.893 494.752 235.96C508.192 226.573 517.366 219.96 522.272 216.12C527.392 212.28 531.126 208.76 533.472 205.56C536.672 201.933 540.832 198.307 545.952 194.68C551.072 191.267 564.406 183.053 585.952 170.04C614.326 152.76 629.579 144.12 631.712 144.12C632.566 144.12 632.992 144.333 632.992 144.76C633.419 145.613 633.846 146.04 634.272 146.04V144.76C634.059 144.333 634.059 143.8 634.272 143.16C634.486 141.667 636.939 139.533 641.632 136.76L646.752 133.56L640.992 131.96C637.152 131.107 635.232 129.507 635.232 127.16V124.6L634.272 126.84C633.419 128.76 632.459 129.72 631.392 129.72C629.472 129.72 622.859 128.76 611.552 126.84C600.459 124.92 594.699 123.747 594.272 123.32C593.632 122.467 593.312 120.867 593.312 118.52C593.312 118.093 593.312 117.453 593.312 116.6C593.739 115.32 595.232 114.04 597.792 112.76C601.206 111.267 607.819 107 617.632 99.96L621.792 103.16ZM763.192 123.64C763.192 123 761.486 122.68 758.072 122.68C755.512 122.893 754.232 123.533 754.232 124.6C754.872 125.453 756.472 125.773 759.032 125.56C761.806 125.133 763.192 124.493 763.192 123.64ZM839.992 36.28C841.699 32.0133 843.726 29.88 846.072 29.88C847.139 29.88 847.672 30.7333 847.672 32.44C847.672 35 844.152 50.68 837.112 79.48L826.872 123L830.712 127.16C832.632 129.08 833.592 131.32 833.592 133.88C833.592 137.507 831.566 140.92 827.512 144.12C824.952 146.253 821.006 157.667 815.672 178.36C814.819 181.56 813.966 184.867 813.112 188.28C812.259 191.693 811.512 194.68 810.872 197.24C810.232 200.013 809.592 202.467 808.952 204.6C808.526 206.733 808.099 208.44 807.672 209.72C807.246 211 807.032 211.747 807.032 211.96C806.606 212.6 805.966 212.92 805.112 212.92C803.192 212.92 800.739 211.96 797.752 210.04C794.979 208.12 793.059 206.093 791.992 203.96C791.139 202.253 790.712 200.76 790.712 199.48C790.712 196.707 792.846 185.507 797.112 165.88C800.526 150.307 802.232 141.667 802.232 139.96C802.232 138.893 796.366 138.36 784.632 138.36H767.352L763.832 149.56C757.006 174.52 753.166 188.493 752.312 191.48C751.246 193.827 748.472 196.28 743.992 198.84C738.659 201.4 735.246 205.56 733.752 211.32C732.899 214.52 731.406 217.72 729.272 220.92C727.352 224.333 725.859 226.04 724.792 226.04C724.366 226.04 724.152 225.613 724.152 224.76C724.152 222.627 727.779 204.28 735.032 169.72C742.499 134.947 746.552 117.347 747.192 116.92C748.046 116.067 748.472 114.787 748.472 113.08C748.472 110.947 750.712 109.56 755.192 108.92L762.232 107.64L755.832 107.32C754.126 107.107 752.952 107 752.312 107C751.672 106.787 751.032 106.36 750.392 105.72C749.966 105.08 749.752 104.12 749.752 102.84C749.752 100.92 750.606 96.2267 752.312 88.76C754.232 81.08 755.192 73.9333 755.192 67.32C755.619 59.64 756.472 53.7733 757.752 49.72C758.819 46.3067 759.886 44.0667 760.952 43C762.232 41.9333 764.579 41.08 767.992 40.44C771.406 40.0133 775.459 39.16 780.152 37.88C780.792 37.6667 781.432 37.56 782.072 37.56C783.779 37.56 784.632 40.5467 784.632 46.52C784.632 53.56 782.392 67.32 777.912 87.8C773.219 109.347 770.872 120.547 770.872 121.4C770.872 122.04 775.566 122.36 784.952 122.36H790.712L810.552 121.72L819.512 87.16C825.272 64.76 829.646 51.8533 832.632 48.44C835.832 44.8133 838.286 40.76 839.992 36.28ZM885.105 167.8C885.532 167.8 885.745 167.587 885.745 167.16C885.745 166.52 885.532 166.2 885.105 166.2C884.678 166.2 884.465 166.52 884.465 167.16C884.465 167.587 884.678 167.8 885.105 167.8ZM882.225 167.8C882.865 167.8 883.185 167.587 883.185 167.16C883.185 166.52 882.865 166.2 882.225 166.2C881.798 166.2 881.585 166.52 881.585 167.16C881.585 167.587 881.798 167.8 882.225 167.8ZM957.105 155.32C957.532 155.32 957.745 155.107 957.745 154.68C957.745 154.253 957.532 154.04 957.105 154.04C956.678 154.04 956.465 154.253 956.465 154.68C956.465 155.107 956.678 155.32 957.105 155.32ZM893.745 153.4C893.745 152.12 893.425 151.373 892.785 151.16C891.932 151.587 891.185 152.333 890.545 153.4C889.905 154.893 889.692 155.853 889.905 156.28C890.118 156.493 890.758 156.387 891.825 155.96C893.105 155.32 893.745 154.467 893.745 153.4ZM973.105 150.84C973.532 151.267 973.958 151.373 974.385 151.16C975.025 150.733 974.918 150.307 974.065 149.88C973.425 150.093 973.105 150.413 973.105 150.84ZM963.185 154.36C963.185 153.293 962.438 152.227 960.945 151.16C960.518 150.733 960.092 150.52 959.665 150.52C959.452 150.52 959.238 150.627 959.025 150.84C959.025 151.053 959.025 151.693 959.025 152.76C959.025 154.467 959.665 155.32 960.945 155.32C962.438 155.32 963.185 155 963.185 154.36ZM957.105 151.16C956.678 150.307 956.145 149.88 955.505 149.88C954.865 149.88 955.185 150.627 956.465 152.12C956.678 152.547 956.892 152.76 957.105 152.76C957.745 152.76 957.745 152.227 957.105 151.16ZM916.145 139.32C920.198 139.32 922.225 138.893 922.225 138.04C922.225 136.973 920.198 136.44 916.145 136.44C912.305 136.44 910.385 136.973 910.385 138.04C910.385 138.893 912.305 139.32 916.145 139.32ZM957.425 136.44C954.012 136.44 949.745 136.12 944.625 135.48L937.905 134.84C934.705 138.68 929.798 144.333 923.185 151.8L911.665 151.16C906.332 150.733 903.238 150.52 902.385 150.52C898.972 150.52 897.265 151.053 897.265 152.12C897.265 152.547 897.478 153.187 897.905 154.04C898.758 155.96 902.385 157.027 908.785 157.24L918.385 157.56L915.825 161.08C913.905 163.427 910.065 164.813 904.305 165.24C898.332 165.453 895.345 166.307 895.345 167.8C895.345 168.653 897.372 169.08 901.425 169.08C905.478 169.08 907.505 169.4 907.505 170.04C907.505 170.68 905.692 173.133 902.065 177.4C898.652 181.453 896.945 183.907 896.945 184.76C896.945 184.76 897.478 184.44 898.545 183.8C899.825 183.16 901.318 182.2 903.025 180.92C904.945 179.64 906.865 178.36 908.785 177.08C916.465 171.747 921.905 169.08 925.105 169.08C926.172 169.08 926.918 169.08 927.345 169.08C927.985 169.08 928.412 168.973 928.625 168.76C928.838 168.333 928.945 168.12 928.945 168.12C928.945 167.907 928.945 167.587 928.945 167.16C928.945 166.52 928.945 165.987 928.945 165.56C928.945 163.427 930.758 161.187 934.385 158.84C938.225 156.493 942.065 155.32 945.905 155.32C950.172 155.32 952.305 154.68 952.305 153.4C952.305 152.12 951.558 151.053 950.065 150.2C949.638 149.987 949.425 149.667 949.425 149.24C949.425 148.6 951.452 146.787 955.505 143.8C960.625 140.387 963.185 138.253 963.185 137.4C963.185 136.76 961.265 136.44 957.425 136.44ZM953.585 128.76C954.012 129.187 954.438 129.293 954.865 129.08C955.505 128.867 955.825 128.547 955.825 128.12C955.825 127.48 955.612 126.947 955.185 126.52C954.545 126.093 954.012 125.987 953.585 126.2C953.158 126.413 952.945 126.84 952.945 127.48C952.945 127.907 953.158 128.333 953.585 128.76ZM1013.43 6.84C1017.48 2.57332 1020.25 0.439983 1021.75 0.439983H1022.07C1022.71 1.07999 1020.25 5.77332 1014.71 14.52L1006.71 27V37.88L1006.39 49.08L993.585 65.08C991.238 68.0667 986.972 73.5067 980.785 81.4C974.598 89.2933 970.332 94.7333 967.985 97.72L955.185 114.04L967.665 114.68C973.638 115.107 981.638 115.533 991.665 115.96L1003.19 116.28L1006.71 123.64L1010.23 132.28C1010.23 132.92 1008.31 134.733 1004.47 137.72C1003.4 138.573 999.985 141.133 994.225 145.4C988.465 149.667 980.252 155.747 969.585 163.64C958.918 171.32 949.318 178.253 940.785 184.44L884.145 226.04L866.545 216.12C855.025 209.72 849.158 205.56 848.945 203.64C848.945 201.507 861.745 184.973 887.345 154.04C888.198 153.187 890.758 150.2 895.025 145.08C899.292 139.747 904.945 132.6 911.985 123.64C919.238 114.68 926.172 106.253 932.785 98.36C952.625 73.6133 964.572 59.1067 968.625 54.84C972.892 50.36 977.052 47.16 981.105 45.24C985.372 43.7467 988.145 42.2533 989.425 40.76C990.918 39.2667 993.692 35 997.745 27.96C1003.29 18.5733 1008.52 11.5333 1013.43 6.84Z" fill="white"/>
</svg>
