<svg xmlns="http://www.w3.org/2000/svg" width="212" height="73" viewBox="0 0 212 73" fill="none">
  <path d="M7 6L15.3988 0.400821C15.7908 0.139465 16.2514 0 16.7226 0H32H63.5763C63.8566 0 64.1347 0.0493796 64.3978 0.145875L93.6022 10.8541C93.8653 10.9506 94.1434 11 94.4237 11H195.204C195.721 11 196.223 11.1675 196.636 11.4773L204 17L211.185 23.2869C211.703 23.7401 212 24.3948 212 25.0829V38V70.6134C212 71.9315 210.932 73 209.613 73H17.6184C17.2128 73 16.8139 72.8966 16.4594 72.6997L8 68L1.12168 63.701C0.423899 63.2649 0 62.5001 0 61.6773V13.0977C0 12.401 0.304435 11.7391 0.833405 11.2857L7 6Z" fill="url(#paint0_linear_1_3977)" fill-opacity="0.8"/>
  <path d="M1.4842 12.0449L7.60494 6.79856L15.9535 1.23287C16.1812 1.08103 16.4489 1 16.7226 1H32H63.5763C63.7391 1 63.9007 1.02869 64.0536 1.08475L93.2579 11.793C93.6313 11.9299 94.026 12 94.4237 12H195.204C195.504 12 195.796 12.0973 196.036 12.2773L203.37 17.7774L210.526 24.0395L211.185 23.2869L210.527 24.0395C210.827 24.3027 211 24.6831 211 25.0829V38V70.6134C211 71.3792 210.379 72 209.613 72H17.6184C17.3828 72 17.151 71.9399 16.945 71.8255L8.50813 67.1383L1.65168 62.8531C1.24628 62.5997 1 62.1553 1 61.6773V13.0977C1 12.6929 1.17687 12.3083 1.4842 12.0449Z" stroke="#11E5B3" stroke-width="2"/>
  <defs>
    <linearGradient id="paint0_linear_1_3977" x1="148.547" y1="89.2222" x2="137.473" y2="-0.982305" gradientUnits="userSpaceOnUse">
      <stop stop-color="#008969"/>
      <stop offset="1" stop-color="#0C1E30" stop-opacity="0.68"/>
    </linearGradient>
  </defs>
</svg>